<?xml version="1.0" standalone="no"?>
<!DOCTYPE svg PUBLIC "-//W3C//DTD SVG 20010904//EN"
 "http://www.w3.org/TR/2001/REC-SVG-20010904/DTD/svg10.dtd">
<svg version="1.0" xmlns="http://www.w3.org/2000/svg"
 width="512.000000pt" height="512.000000pt" viewBox="0 0 512.000000 512.000000"
 preserveAspectRatio="xMidYMid meet">
<metadata>
Created by potrace 1.11, written by Peter Selinger 2001-2013
</metadata>
<g transform="translate(0.000000,512.000000) scale(0.100000,-0.100000)"
fill="#000000" stroke="none">
<path d="M2465 4880 c-35 -8 -580 -155 -895 -240 -118 -31 -312 -83 -430 -115
-118 -31 -303 -81 -410 -110 -107 -30 -233 -63 -280 -75 -145 -37 -222 -86
-290 -185 -77 -113 -83 -226 -21 -450 45 -162 113 -418 240 -890 233 -870 544
-2032 566 -2115 50 -184 107 -265 237 -331 58 -31 70 -33 163 -34 91 0 118 5
295 54 357 98 445 121 460 121 9 0 21 -15 28 -33 21 -58 113 -150 189 -188
l68 -34 1154 -3 c1047 -2 1159 -1 1205 14 133 43 233 144 270 274 15 50 16
225 14 1790 l-3 1735 -24 59 c-33 82 -135 184 -217 217 l-59 24 -857 3 -857 2
-10 33 c-5 17 -22 77 -36 132 -14 55 -38 121 -52 147 -50 93 -145 167 -245
194 -56 15 -153 17 -203 4z"/>
</g>
</svg>
